<?xml version="1.0" standalone="no"?>
<!DOCTYPE svg PUBLIC "-//W3C//DTD SVG 20010904//EN"
 "http://www.w3.org/TR/2001/REC-SVG-20010904/DTD/svg10.dtd">
<svg version="1.0" xmlns="http://www.w3.org/2000/svg"
 width="1024.000000pt" height="1024.000000pt" viewBox="0 0 1024.000000 1024.000000"
 preserveAspectRatio="xMidYMid meet">
<metadata>
Created by potrace 1.14, written by Peter Selinger 2001-2017
</metadata>
<g transform="translate(0.000000,1024.000000) scale(0.100000,-0.100000)"
fill="#000000" stroke="none">
<path d="M5259 8706 c-2 -2 -47 -7 -100 -10 -53 -4 -105 -8 -115 -10 -10 -2
-44 -7 -74 -11 -62 -8 -65 -9 -175 -31 -309 -61 -617 -176 -885 -328 -60 -34
-211 -130 -235 -149 -5 -4 -48 -36 -95 -72 -174 -130 -387 -333 -525 -500 -28
-33 -56 -66 -62 -73 -29 -30 -183 -243 -230 -318 -239 -376 -394 -748 -488
-1172 -13 -62 -27 -134 -31 -160 -3 -26 -8 -49 -9 -52 -10 -16 -42 -307 -51
-453 -4 -83 -4 -435 1 -517 13 -222 32 -382 66 -555 11 -55 21 -110 24 -123
27 -143 132 -483 184 -597 5 -11 30 -67 56 -124 25 -57 66 -139 91 -183 24
-44 44 -82 44 -84 0 -3 11 -21 24 -42 198 -313 323 -472 555 -702 395 -392
842 -647 1391 -794 103 -27 266 -61 345 -71 28 -3 59 -8 70 -10 159 -35 796
-41 985 -11 14 3 75 12 135 21 621 94 1191 384 1625 826 198 203 280 317 280
393 0 50 -122 254 -403 676 -368 552 -425 619 -495 581 -21 -11 -70 -51 -207
-166 -278 -234 -535 -381 -801 -459 -50 -15 -102 -29 -115 -31 -13 -3 -35 -7
-49 -10 -109 -23 -195 -30 -375 -29 -183 1 -284 14 -440 59 -357 103 -679 386
-873 770 -153 301 -215 598 -208 995 2 113 6 221 10 240 3 19 8 55 11 80 40
304 176 625 364 866 53 67 166 184 226 234 161 133 420 251 625 284 171 28
477 28 603 0 12 -3 36 -8 52 -11 57 -10 260 -75 330 -105 109 -47 288 -149
370 -210 52 -39 227 -179 254 -203 19 -16 39 -34 45 -40 6 -5 40 -35 76 -65
36 -30 67 -57 70 -60 14 -15 61 -40 76 -40 9 0 32 8 51 17 67 31 216 257 493
748 155 274 266 493 295 581 30 93 -6 165 -162 321 -200 200 -425 368 -668
500 -286 154 -642 274 -990 332 -168 28 -181 30 -265 37 -41 3 -86 8 -100 11
-33 6 -595 15 -601 9z"/>
</g>
</svg>
